# AST/ASF file generated using VICON BodyLanguage
# -----------------------------------------------
:version 1.10
:name VICON
:units
  mass 1.0
  length 0.45
  angle deg
:documentation
   .ast/.asf automatically generated from VICON data using
   VICON BodyBuilder and BodyLanguage model FoxedUp or BRILLIANT.MOD
:root
   order TX TY TZ RX RY RZ
   axis XYZ
   position 0 0 0  
   orientation 0 0 0 
:bonedata
  begin
     id 1 
     name lhipjoint
     direction 0.611804 -0.747784 0.257906 
     length 2.29243 
     axis 0 0 0  XYZ
  end
  begin
     id 2 
     name lfemur
     direction 0.34202 -0.939693 0  
     length 7.31159  
     axis 0 0 20  XYZ
    dof rx ry rz
    limits (-160.0 20.0)
           (-70.0 70.0)
           (-60.0 70.0)
  end
  begin
     id 3 
     name ltibia
     direction 0.34202 -0.939693 0   
     length 7.33391   
     axis 0 0 20   XYZ
    dof rx
    limits (-10.0 170.0)
  end
  begin
     id 4 
     name lfoot
     direction 0.122263 -0.335914 0.933924   
     length 1.76083   
     axis -90 7.62852e-016 20   XYZ
    dof rx rz
    limits (-45.0 90.0)
           (-70.0 20.0)
  end
  begin
     id 5 
     name ltoes
     direction 1.53533e-011 -4.2177e-011 1   
     length 0.879206   
     axis -90 7.62852e-016 20   XYZ
    dof rx
    limits (-90.0 20.0)
  end
  begin
     id 6 
     name rhipjoint
     direction -0.646469 -0.721248 0.248754   
     length 2.37677  
     axis 0 0 0  XYZ 
  end
  begin
     id 7 
     name rfemur
     direction -0.34202 -0.939693 0   
     length 7.18623   
     axis 0 0 -20   XYZ
    dof rx ry rz
    limits (-160.0 20.0)
           (-70.0 70.0)
           (-70.0 60.0)
  end
  begin
     id 8 
     name rtibia
     direction -0.34202 -0.939693 0   
     length 7.36567   
     axis 0 0 -20   XYZ
    dof rx
    limits (-10.0 170.0)
 end
 begin
     id 9 
     name rfoot
     direction -0.126681 -0.348054 0.928876   
     length 1.71902  
     axis -90 -7.62852e-016 -20   XYZ
    dof rx rz
    limits (-45.0 90.0)
           (-20.0 70.0)
  end
  begin
     id 10 
     name rtoes
     direction -1.53551e-011 -4.21898e-011 1   
     length 0.857792   
     axis -90 -7.62852e-016 -20   XYZ
    dof rx
    limits (-90.0 20.0)
  end
  begin
     id 11 
     name lowerback
     direction 0.0106509 0.999778 0.0181844   
     length 2.07668   
     axis 0 0 0   XYZ
    dof rx ry rz
    limits (-20.0 45.0)
           (-30.0 30.0)
           (-30.0 30.0)
  end
  begin
     id 12 
     name upperback
     direction -0.00456018 0.999989 -0.000590935   
     length 2.08011   
     axis 0 0 0   XYZ
    dof rx ry rz
    limits (-20.0 45.0)
           (-30.0 30.0)
           (-30.0 30.0)
  end
  begin
     id 13 
     name thorax
     direction -0.00910382 0.999916 -0.00923765   
     length 2.07397   
     axis 0 0 0   XYZ
    dof rx ry rz
    limits (-20.0 45.0)
           (-30.0 30.0)
           (-30.0 30.0)
  end
  begin
     id 14 
     name lowerneck
     direction 0.00171967 0.99778 0.0665733   
     length 1.67556   
     axis 0 0 0   XYZ
    dof rx ry rz
    limits (-20.0 45.0)
           (-30.0 30.0)
           (-30.0 30.0)
  end
  begin
     id 15 
     name upperneck
     direction -0.0143166 0.991302 -0.130828   
     length 1.68462   
     axis 0 0 0   XYZ
    dof rx ry rz
    limits (-20.0 45.0)
           (-30.0 30.0)
           (-30.0 30.0)
  end
  begin
     id 16
     name head
     direction -0.00606378 0.998665 -0.0512995  
     length 1.69269  
     axis 0 0 0   XYZ
    dof rx ry rz
    limits (-20.0 45.0)
           (-30.0 30.0)
           (-30.0 30.0)
  end
  begin
     id 17 
     name lclavicle
     direction 0.9638 0.179341 0.197297  
     length 4.12888  
     axis 0 0 0   XYZ
    dof ry rz
    limits (-20.0 10.0)
           (0.0 20.0)
  end
  begin
     id 18 
     name lhumerus
     direction 1 -4.48972e-011 -2.47351e-027   
     length 5.01834   
     axis -180 -30 -90   XYZ
    dof rx ry rz
    limits (-60.0 90.0)
           (-90.0 90.0)
           (-90.0 90.0)
  end
  begin
     id 19
     name lradius
     direction 1 -4.48965e-011 1.51591e-026   
     length 3.4869   
     axis -180 -30 -90   XYZ
    dof rx
    limits (-10.0 170.0)
  end
  begin
     id 20
     name lwrist
     direction 1 -4.48957e-011 2.70032e-026   
     length 1.74345   
     axis -1.81515e-014 90 90   XYZ
    dof ry
    limits (-180.0 0.0)
 end
  begin
     id 21 
     name lhand
     direction 1 -4.48951e-011 5.40064e-026   
     length 0.76799   
     axis -3.44607e-014 90 90   XYZ
    dof rx rz
    limits (-90.0 90.0)
           (-45.0 45.0)
  end
  begin
     id 22 
     name lfingers
     direction 1 -4.48971e-011 1.08013e-025   
     length 0.619174   
     axis -6.89214e-014 90 90   XYZ
    dof rx
    limits (0.0 90.0)
  end
  begin
     id 23
     name lthumb
     direction 0.707107 -6.34931e-011 0.707107   
     length 0.889013   
     axis -90 45 2.85299e-015   XYZ
    dof rx rz
    limits (-45.0 45.0)
           (-45.0 45.0)
  end
  begin
     id 24 
     name rclavicle
     direction -0.961409 0.252588 0.109054   
     length 4.04305  
     axis 0 0 0   XYZ 
    dof ry rz
    limits (-10.0 20.0)
           (-20.0 0.0)
  end
  begin
     id 25 
     name rhumerus
     direction -1 -4.4897e-011 1.33872e-017  
     length 4.70164   
     axis -180 30 90   XYZ
    dof rx ry rz
    limits (-90.0 60.0)
           (-90.0 90.0)
           (-90.0 90.0)
  end
  begin
     id 26 
     name rradius
     direction -1 -4.48954e-011 1.83844e-026   
     length 3.49911   
     axis -180 30 90   XYZ
    dof rx
    limits (-10.0 170.0)
  end
  begin
     id 27 
     name rwrist
     direction -1 -4.49008e-011 2.70032e-026   
     length 1.74955   
     axis -1.81515e-014 -90 -90   XYZ
    dof ry
    limits (-180.0 0.0)
  end
  begin
     id 28
     name rhand
     direction -1 -4.48916e-011 5.40064e-026   
     length 0.739335   
     axis -3.44607e-014 -90 -90   XYZ
    dof rx rz
    limits (-90.0 90.0)
           (-45.0 45.0)
  end
  begin
     id 29
     name rfingers
     direction -1 -4.48987e-011 1.08013e-025   
     length 0.596071   
     axis -6.89214e-014 -90 -90   XYZ
    dof rx
    limits (0.0 90.0)
  end
  begin
     id 30
     name rthumb
     direction -0.707107 -6.34935e-011 0.707107   
     length 0.855843   
     axis -90 -45 -2.85299e-015   XYZ
    dof rx rz
    limits (-45.0 45.0)
           (-45.0 45.0)
  end
:hierarchy
  begin
    root lhipjoint rhipjoint lowerback
    lhipjoint lfemur
    lfemur ltibia
    ltibia lfoot
    lfoot ltoes
    rhipjoint rfemur
    rfemur rtibia
    rtibia rfoot
    rfoot rtoes
    lowerback upperback
    upperback thorax
    thorax lowerneck lclavicle rclavicle
    lowerneck upperneck
    upperneck head
    lclavicle lhumerus
    lhumerus lradius
    lradius lwrist
    lwrist lhand lthumb
    lhand lfingers
    rclavicle rhumerus
    rhumerus rradius
    rradius rwrist
    rwrist rhand rthumb
    rhand rfingers
  end

#!OML:ASF I:\salsa\salsa 7_09\Patient 1\Session 1\dancermale.ASF
:FULLY-SPECIFIED
:DEGREES
213
root -1.33654 17.3481 1.69151 76.9123 87.2292 71.1426
lowerback -6.18018 0.913194 -0.104742
upperback -0.478889 1.30518 -1.83985
thorax 3.01206 0.669428 -1.72405
lowerneck -5.31214 -1.50155 1.03611
upperneck 18.2166 -1.31866 -2.96222
head 6.36611 -0.65918 -1.19286
rclavicle 2.46617e-015 -7.7526e-015
rhumerus -43.7024 4.80275 -97.3736
rradius 85.2109
rwrist -2.90062
rhand -22.7784 -3.78299
rfingers 7.12502
rthumb 3.65709 -33.7314
lclavicle 2.46617e-015 -7.7526e-015
lhumerus -23.3092 -17.1184 96.684
lradius 87.6117
lwrist 56.1887
lhand -18.4521 58.2286
lfingers 7.12502
lthumb 7.83402 88.0634
rfemur -27.7889 4.01744 12.4567
rtibia 16.5539
rfoot -8.99288 -11.7026
rtoes -6.76922
lfemur -3.3134 7.92049 -24.6647
ltibia 12.2293
lfoot -18.9163 2.37921
ltoes -2.51588
214
root -1.20137 17.3396 1.71499 80.335 87.5106 74.2382
lowerback -6.49489 0.91458 0.175924
upperback -0.55381 1.28608 -1.74804
thorax 3.11433 0.662988 -1.78469
lowerneck -5.33067 -1.51219 0.960744
upperneck 18.196 -1.32112 -2.98354
head 6.36328 -0.667191 -1.18721
rclavicle 7.78366e-015 -1.5704e-014
rhumerus -43.4492 4.66293 -96.9737
rradius 85.022
rwrist -3.20997
rhand -23.0786 -3.66879
rfingers 7.12502
rthumb 3.36721 -33.6219
lclavicle 7.78366e-015 -1.5704e-014
lhumerus -22.7073 -16.7717 96.5248
lradius 87.5967
lwrist 57.1072
lhand -17.9091 58.7788
lfingers 7.12502
lthumb 8.3581 88.5934
rfemur -27.9458 5.74023 12.0893
rtibia 14.0307
rfoot -8.53344 -12.719
rtoes -7.69777
lfemur -3.33179 7.65093 -24.3206
ltibia 12.5309
lfoot -19.3227 2.72959
ltoes -3.03239
215
root -1.06343 17.3295 1.74128 84.96 87.8087 78.6708
lowerback -6.7029 0.925102 0.468514
upperback -0.570725 1.27473 -1.63493
thorax 3.21664 0.660418 -1.83056
lowerneck -5.3314 -1.51827 0.889768
upperneck 18.0627 -1.3241 -3.00628
head 6.32151 -0.676402 -1.18169
rclavicle -4.47887e-015 1.19271e-015
rhumerus -43.1066 4.69146 -96.6074
rradius 84.7738
rwrist -3.879
rhand -23.7208 -3.48865
rfingers 7.12502
rthumb 2.74702 -33.4507
lclavicle -4.47887e-015 1.19271e-015
lhumerus -21.9863 -16.5451 96.3801
lradius 87.4961
lwrist 58.1052
lhand -17.655 59.2869
lfingers 7.12502
lthumb 8.60326 89.0916
rfemur -27.8864 7.37293 11.7721
rtibia 11.8109
rfoot -8.29789 -13.7041
rtoes -8.12503
lfemur -3.17889 7.41319 -23.9051
ltibia 12.8264
lfoot -19.7473 3.04851
ltoes -3.6128
216
root -0.907126 17.3133 1.76845 95.2882 87.7333 89.1653
lowerback -6.80265 0.881672 0.373916
upperback -0.426864 1.22198 -1.57134
thorax 3.41596 0.633131 -1.71433
lowerneck -5.47501 -1.54715 0.645233
upperneck 18.119 -1.34457 -2.93889
head 6.36718 -0.6984 -1.12269
rclavicle -5.75854e-015 3.67752e-015
rhumerus -42.662 4.78338 -96.1502
rradius 84.4002
rwrist -4.5867
rhand -24.4797 -3.24048
rfingers 7.12502
rthumb 2.01403 -33.2107
lclavicle -5.75854e-015 3.67752e-015
lhumerus -21.2566 -16.5375 96.3568
lradius 87.3589
lwrist 59.3498
lhand -17.6132 59.4367
lfingers 7.12502
lthumb 8.64366 89.2397
rfemur -27.2304 8.56471 11.1933
rtibia 9.73044
rfoot -8.15334 -14.4422
rtoes -8.34717
lfemur -2.48359 7.12036 -23.8848
ltibia 12.9758
lfoot -20.227 3.23806
ltoes -4.10915
217
root -0.746013 17.2962 1.79822 105.746 87.5551 99.7291
lowerback -6.96087 0.879487 0.284499
upperback -0.333041 1.22547 -1.52841
thorax 3.59903 0.633847 -1.61655
lowerneck -5.67652 -1.6588 0.427367
upperneck 18.3913 -1.45667 -2.93545
head 6.48946 -0.765945 -1.09731
rclavicle 8.97326e-015 -2.52953e-014
rhumerus -42.1889 4.56534 -95.4807
rradius 83.9293
rwrist -4.53952
rhand -24.5218 -3.23437
rfingers 7.12502
rthumb 1.97344 -33.205
lclavicle 8.97326e-015 -2.52953e-014
lhumerus -20.5538 -16.6537 96.4286
lradius 87.2619
lwrist 60.4371
lhand -17.1633 59.8602
lfingers 7.12502
lthumb 9.07774 89.6448
rfemur -26.6906 9.15529 10.8326
rtibia 8.75295
rfoot -8.69351 -14.5913
rtoes -8.45369
lfemur -1.89677 6.73771 -23.901
ltibia 13.2036
lfoot -20.6972 3.49109
ltoes -4.62274
218
root -0.590438 17.2779 1.83183 118.272 87.3171 112.149
lowerback -7.15215 0.832869 0.286027
upperback -0.38208 1.16359 -1.4995
thorax 3.65294 0.603261 -1.59155
lowerneck -5.79031 -1.79948 0.524491
upperneck 18.6092 -1.6023 -3.19043
head 6.57259 -0.84796 -1.20845
rclavicle -3.71168e-015 8.00108e-015
rhumerus -41.881 4.27977 -94.8436
rradius 83.5331
rwrist -4.40378
rhand -24.2185 -3.35092
rfingers 7.12502
rthumb 2.26637 -33.3186
lclavicle -3.71168e-015 8.00108e-015
lhumerus -19.9566 -16.7424 96.4536
lradius 87.2923
lwrist 61.1642
lhand -17.1714 60.3413
lfingers 7.12502
lthumb 9.06994 -90.1263
rfemur -26.5332 9.32847 10.6238
rtibia 8.59763
rfoot -9.15957 -14.6375
rtoes -7.93864
lfemur -1.70457 6.15876 -23.8512
ltibia 13.6461
lfoot -21.2014 3.85993
ltoes -5.44425
219
root -0.432199 17.2591 1.86851 132.18 86.9343 126.028
lowerback -7.24874 0.680253 0.345264
upperback -0.459445 0.953155 -1.42937
thorax 3.62013 0.498968 -1.57326
lowerneck -5.68381 -1.86157 0.637551
upperneck 18.6579 -1.65856 -3.38562
head 6.56478 -0.879384 -1.29284
rclavicle -8.27286e-015 -6.08778e-015
rhumerus -41.7287 4.21375 -94.3565
rradius 83.1911
rwrist -4.63336
rhand -24.3002 -3.43749
rfingers 7.12502
rthumb 2.18746 -33.406
lclavicle -8.27286e-015 -6.08778e-015
lhumerus -19.5832 -16.8046 96.4303
lradius 87.4261
lwrist 61.6825
lhand -17.9782 60.2492
lfingers 7.12502
lthumb 8.29137 -90.0665
rfemur -26.2893 8.904 10.7823
rtibia 9.24684
rfoot -9.4915 -14.5633
rtoes -7.19202
lfemur -1.44861 5.36723 -23.6913
ltibia 14.1586
lfoot -21.8033 4.28051
ltoes -6.31049
